<?xml version="1.0" encoding="UTF-8" standalone="no"?>
<!-- Created with Inkscape (http://www.inkscape.org/) -->

<svg
   version="1.1"
   id="svg2"
   width="4000"
   height="2666.6667"
   viewBox="0 0 4000 2666.6667"
   sodipodi:docname="ims.eps"
   xmlns:inkscape="http://www.inkscape.org/namespaces/inkscape"
   xmlns:sodipodi="http://sodipodi.sourceforge.net/DTD/sodipodi-0.dtd"
   xmlns="http://www.w3.org/2000/svg"
   xmlns:svg="http://www.w3.org/2000/svg">
  <defs
     id="defs6" />
  <sodipodi:namedview
     id="namedview4"
     pagecolor="#ffffff"
     bordercolor="#000000"
     borderopacity="0.25"
     inkscape:showpageshadow="2"
     inkscape:pageopacity="0.0"
     inkscape:pagecheckerboard="0"
     inkscape:deskcolor="#d1d1d1" />
  <g
     id="g8"
     inkscape:groupmode="layer"
     inkscape:label="ink_ext_XXXXXX"
     transform="matrix(1.3333333,0,0,-1.3333333,0,2666.6667)">
    <g
       id="g10"
       transform="scale(0.1)">
      <path
         d="M 0,0 H 30000 V 20000 H 0 Z"
         style="fill:#ffffff;fill-opacity:1;fill-rule:nonzero;stroke:none"
         id="path12" />
      <path
         d="m 25709.2,3117.1 c 0,0 3060.1,3285.6 517.5,6842.6 -2255.9,3156.1 -4886.1,2940.4 -6815.8,1659.6 -821.9,-545.5 -3191.6,-67.2 -5208.4,3144.2 C 11452.1,19143 1918.06,16486.9 3656.4,9748.9 4497.64,6488.2 1096.19,6369.6 2829.36,3110.2 l 22879.84,6.9"
         style="fill:#fbecdb;fill-opacity:1;fill-rule:nonzero;stroke:none"
         id="path14" />
      <path
         d="m 18722.7,12887.6 h -6582.6 v 2851.6 h 6582.6 v -2851.6 m 0,-3200 h -1875.4 l -5,1636.4 -1835.6,-5.6 v -0.7 l -550.8,-2.1 v -0.1 h -3.7 l 1.2,-517.6 3.8,-2.8 2.8,-1107.5 h -2319.9 v 2851.6 h 6582.6 V 9687.6 m 0,-3200 h -643 l -5,2655.7 -1835.6,-5.6 v -0.7 l -550.8,-2.2 v 0 h -3.7 l 1.2,-517.6 3.3,-2.5 3.3,-2125.9 h 551.7 v -1.2 h -1696.8 -20.3 l -4.5,1636.4 -1835.6,-5.6 v -0.8 l -546.8,-2.1 v 1223.7 h 6582.6 V 6487.6 m -5112.9,1.4 6.4,-1.4 h -6.4 v 1.4 m 5112.9,-1583.1 -1819.3,-5.6 v -0.7 l -550.8,-2.1 v -0.1 h -3.8 l 1.3,-517.6 3.8,-2.8 2.7,-1089.5 h -4216.5 v 2851.6 h 6582.6 V 4905.9 m -6582.6,1604.9 0.1,-23.2 h -0.1 v 23.2 m 6738.8,9378.5 h -556.5 l -3.2,1050.4 -1189.5,-3.7 v -0.4 l -356.8,-1.4 v 0 h -2.5 l 0.8,-335.4 2.5,-1.9 1.7,-707.6 H 11984 V 3123.9 h 6894.9 v -4.5 h 937.1 v 12769.9 h -937.1"
         style="fill:#ead6c3;fill-opacity:1;fill-rule:nonzero;stroke:none"
         id="path16" />
      <path
         d="m 13859.7,5657.4 -2856.7,8.8 -7.8,-2533.6 2856.7,-8.8 7.8,2533.6"
         style="fill:#d3671e;fill-opacity:1;fill-rule:nonzero;stroke:none"
         id="path18" />
      <path
         d="m 14716.8,5653 -2287,8.8 -6.2,-2533.6 2287,-8.8 6.2,2533.6"
         style="fill:#f1a34f;fill-opacity:1;fill-rule:nonzero;stroke:none"
         id="path20" />
      <path
         d="m 14716.5,5653 -856.8,3.3 v 0.4 l 856.8,-3.3 v -0.4 m -1781.6,7.2 -511.3,1.6 v 0.4 l 511.3,-2"
         style="fill:#edb78b;fill-opacity:1;fill-rule:nonzero;stroke:none"
         id="path22" />
      <path
         d="m 12417.3,3128.6 6.3,2533.2 511.3,-1.6 924.8,-3.5 v -0.4 l -1429.9,5.5 -6.2,-2528.5 -6.3,-4.7"
         style="fill:#d5671a;fill-opacity:1;fill-rule:nonzero;stroke:none"
         id="path24" />
      <path
         d="m 12423.6,3133.3 6.2,2528.5 1429.9,-5.5 856.8,-3.3 -2,-805.2 -2290.9,-1714.5"
         style="fill:#e78b37;fill-opacity:1;fill-rule:nonzero;stroke:none"
         id="path26" />
      <path
         d="m 11094.5,4751.9 -1835.57,5.7 -5.01,-1628 1835.58,-5.7 5,1628"
         style="fill:#d3671e;fill-opacity:1;fill-rule:nonzero;stroke:none"
         id="path28" />
      <path
         d="m 11645.3,4749.1 -1469.6,5.6 -4,-1627.9 1469.6,-5.7 4,1628"
         style="fill:#f1a34f;fill-opacity:1;fill-rule:nonzero;stroke:none"
         id="path30" />
      <path
         d="m 11644,4228.6 1.3,520.5 h 3.8 l -1.3,-517.6 -3.8,-2.9"
         style="fill:#d5671a;fill-opacity:1;fill-rule:nonzero;stroke:none"
         id="path32" />
      <path
         d="m 10171.7,3126.8 v 0 l 4,1627.9 1469.6,-5.6 -1.3,-520.5 -1472.3,-1101.8"
         style="fill:#e78b37;fill-opacity:1;fill-rule:nonzero;stroke:none"
         id="path34" />
      <path
         d="m 16974.4,3990.2 c -7,84.6 -25.1,165.1 -52.2,239.6 -5.1,14.2 -10.6,28.2 -16.4,41.9 -4.2,10.1 -8.7,20 -13.2,29.8 -5.2,11.1 -10.7,22.1 -16.3,32.8 -6.1,11.8 -12.5,23.4 -19.2,34.8 -32.7,55.8 -71,106.3 -114.1,149.9 l -0.5,0.5 c -15.2,15.3 -31.1,29.8 -47.4,43.5 -12.8,10.6 -25.9,20.5 -39.3,30 -19.2,13.6 -38.9,26.1 -59.3,37.3 -7.6,4.1 -15.2,8.1 -22.9,12 -64.8,31.9 -134.6,51.5 -207.7,56.1 -11,0.7 -22.1,1 -33.2,1 h -300 c -356.2,0 -645,-353.7 -645,-790 0,-436.3 288.8,-790 645,-790 h 300 c 11.1,0 22.2,0.4 33.2,1 73.1,4.6 142.9,24.2 207.7,56.2 7.7,3.8 15.3,7.8 22.9,12 20.4,11.1 40.1,23.6 59.3,37.2 13.4,9.5 26.5,19.4 39.3,30.1 16.3,13.6 32.2,28.1 47.4,43.5 l 0.5,0.4 c 43.1,43.6 81.4,94.1 114.1,149.9 6.7,11.4 13.1,23 19.2,34.8 5.6,10.8 11.1,21.7 16.3,32.8 4.5,9.8 9,19.7 13.2,29.8 5.8,13.7 11.3,27.7 16.4,41.9 27.1,74.5 45.2,155.1 52.2,239.6 2.2,26.6 3.3,53.5 3.3,80.8 0,27.3 -1.1,54.2 -3.3,80.8"
         style="fill:#233862;fill-opacity:1;fill-rule:nonzero;stroke:none"
         id="path36" />
      <path
         d="m 10459,11343.8 c -4.2,-10.4 -14.7,-16 -23.5,-12.5 -8.7,3.6 -12.3,14.9 -8.1,25.4 4.3,10.4 14.8,16 23.5,12.5 8.8,-3.6 12.4,-14.9 8.1,-25.4 z m 184.6,-9.5 h -151.2 c 10.8,30.8 -0.2,63.2 -25.7,73.6 -26.6,10.8 -58.6,-6.3 -71.5,-38.1 -4.9,-11.9 -6.3,-24.2 -4.9,-35.5 h -147.9 c -5.2,0 -10.1,-2.2 -13.6,-6.2 l -48.8,-56.5 c -10.1,-11.7 -1.9,-29.8 13.5,-29.8 h 401.3 c 5.2,0 10.1,2.3 13.6,6.3 l 48.8,56.5 c 10.1,11.6 1.8,29.7 -13.6,29.7"
         style="fill:#ffa412;fill-opacity:1;fill-rule:nonzero;stroke:none"
         id="path38" />
      <path
         d="m 7774.84,15432.7 -486.94,-381.6 c -22.85,-35.7 26.11,-37.6 4.72,-81.5 -197.85,-406.2 -65.13,-840.5 102.37,-796.6 107.43,28.1 137.81,-155.2 137.81,-155.2 l 1043.68,844.9 c 0,0 -383.34,793.2 -801.64,570"
         style="fill:#2c3a64;fill-opacity:1;fill-rule:nonzero;stroke:none"
         id="path40" />
      <path
         d="m 8138.22,3467.4 -221.69,-82.6 c 0,0 -962.89,1335.5 -1081.44,2510.5 -21.17,209.7 -14.11,413 31.67,600.7 0,0 -9.4,53.7 -25.87,148.8 -7.61,44.3 -17.01,97.7 -27.69,158.9 -31.32,179.3 -74.4,424.8 -123.63,704.2 -113.3,643.1 -260.09,1465.1 -374.1,2069.5 l 59.73,19.2 646.32,208.4 133.56,424.3 481.26,126.7 c 0,0 107.51,-210.3 203.61,-1203.8 17.75,-130.3 33.85,-274 45.98,-429.8 37.47,-475.7 40.17,-1065.7 -45.79,-1740.3 -22.09,-172.6 -49.95,-350.9 -84.53,-534.1 -25.34,-134.3 -29.14,-317.2 -18.46,-527.4 48.51,-960.5 401.07,-2453.2 401.07,-2453.2"
         style="fill:#2b478b;fill-opacity:1;fill-rule:nonzero;stroke:none"
         id="path42" />
      <path
         d="M 7885.93,8722.4 6840.89,6644.8 c -7.61,44.3 -17.01,97.7 -27.69,158.9 -31.32,179.3 -74.4,424.8 -123.63,704.2 -113.3,643.1 -260.09,1465.1 -374.1,2069.5 l 59.73,19.2 646.32,208.4 133.56,424.3 481.26,126.7 c 0,0 107.51,-210.3 203.61,-1203.8 17.75,-130.3 33.85,-274 45.98,-429.8"
         style="fill:#233862;fill-opacity:1;fill-rule:nonzero;stroke:none"
         id="path44" />
      <path
         d="m 7426.19,10089.4 -24.19,207.4 c -405.31,-107.6 -1488.23,300.9 -1488.23,300.9 0,0 -392.64,-345.2 -341.09,-1172.5 25.16,-403.9 71.13,-2119.8 119.13,-2627.6 17.35,-184 32.55,-314.9 38.75,-367.3 l 0.12,-0.5 c 1.91,-15.9 -3.66,-31 -11.77,-44.9 -70.67,-120 -129.19,-244.9 -177.19,-372.7 -471.17,-1255.5 72.57,-2801.8 72.57,-2801.8 l 141.1,56.9 c 0,0 309.41,1720.8 560.84,2481 42.68,128.9 83.59,230.2 121.09,290.8 109.29,176.4 210.75,464.7 302.83,807.6 174.03,648.2 314.1,1491.5 407.33,2142.4 12.86,-0.6 278.71,1100.3 278.71,1100.3"
         style="fill:#2b478b;fill-opacity:1;fill-rule:nonzero;stroke:none"
         id="path46" />
      <path
         d="m 10619.3,10354.4 c -87.2,-77.2 -318.8,187.9 -350.7,223.1 -1.6,3.4 -3.3,5.1 -3.3,5.1 l 70.5,196.3 c 0,0 303.6,11.7 353.9,-38.6 50.4,-50.4 25.2,-303.7 -70.4,-385.9"
         style="fill:#ed985f;fill-opacity:1;fill-rule:nonzero;stroke:none"
         id="path48" />
      <path
         d="m 10335.8,10778.9 -30.2,-203.1 c 0,0 -13.5,0 -37,1.7 -73.8,5.1 -253.3,15.1 -456.28,36.9 -305.33,30.2 -667.72,83.9 -812,172.8 -219.76,134.2 -580.47,545.3 -815.34,956.3 -6.72,10.1 -11.74,20.1 -16.78,30.2 -122.47,218.1 -208.03,434.5 -214.73,607.3 -5.04,105.7 6.7,196.3 28.51,275.2 28.51,104 75.5,186.2 124.15,248.2 6.72,10.1 13.42,20.2 23.49,28.6 80.53,95.6 159.38,135.9 159.38,135.9 40.26,16.7 83.88,-3.4 129.17,-52 v -1.7 c 36.91,-38.6 77.18,-97.3 115.76,-171.2 1.68,-1.6 3.36,-3.3 3.36,-5 8.39,-15.1 16.78,-31.9 26.85,-50.3 3.34,-3.4 5.02,-8.4 6.7,-11.8 18.46,-38.5 36.9,-78.8 55.37,-120.7 206.35,-449.7 426.13,-1130.8 609,-1333.8 78.84,-87.2 439.56,-258.3 726.42,-385.9 206.37,-90.6 374.17,-157.6 374.17,-157.6"
         style="fill:#ed985f;fill-opacity:1;fill-rule:nonzero;stroke:none"
         id="path50" />
      <path
         d="m 8200.49,12605.7 c -127.24,-59 -280.91,-99.2 -466.78,-109.3 -696.81,-38.2 -855,572.6 -883.78,978 100.45,36.4 188.41,33 239.09,30.3 49.41,-2.8 101,-7.8 143.52,-13.1 85.26,44.6 238.37,260.8 326.87,622.7 l 30.05,-14 502.79,-236.4 c 0,0 -53.38,-163.6 -92.84,-320.1 -30.77,-122.6 -52.86,-240.9 -34.39,-274 39.64,-16.2 63.35,-26.3 63.35,-26.3 l 0.17,-0.6 c 5.07,-12.8 114.38,-291.3 171.95,-637.2"
         style="fill:#ffb27d;fill-opacity:1;fill-rule:nonzero;stroke:none"
         id="path52" />
      <path
         d="m 8374.79,12148.5 c -5.26,-13.9 -11.05,-27.5 -17.39,-41.4 -176.45,-380.1 -503.16,-1954.6 -503.16,-1954.6 46.52,-283 -2127.36,55.6 -2132.97,313.3 -76.56,273.3 271.67,712.4 468.06,932.7 24.6,27.7 46.69,57.4 65.88,88.7 48.49,78.5 79.27,167.2 89.04,259.9 38.56,365.3 23.88,707.7 27.14,915.9 v 0.1 c 38.38,28.4 75.49,54.6 110.05,79.6 52.84,38.6 99.55,74.6 133.94,111.1 37.82,39.9 61.53,80.6 64.23,126.5 2,34.8 0.92,70.5 -2.7,106.1 -1.64,16.8 -3.8,33.7 -6.34,50.5 -27.15,176.8 -100.99,337.2 -100.99,337.2 186.96,75.6 519.44,30.6 519.44,30.6 0,0 -0.36,-18.5 -0.54,-48.7 -1.09,-121.5 0,-433.3 38.91,-492.3 48.69,-73.5 939.33,-395.5 986.41,-295.8 46.32,98.2 -80.55,557.7 -85.26,575 l -0.17,0.6 c 298.26,-117.1 404.87,-215.4 404.87,-215.4 -179.73,-116.5 80.54,-510.9 -58.45,-879.6"
         style="fill:#739af0;fill-opacity:1;fill-rule:nonzero;stroke:none"
         id="path54" />
      <path
         d="m 8092.26,13863.8 c 0,0 -53.46,-163.4 -92.84,-320.1 -293.88,82 -383.13,390.9 -410,556.5 l 502.84,-236.4"
         style="fill:#ed985f;fill-opacity:1;fill-rule:nonzero;stroke:none"
         id="path56" />
      <path
         d="m 8154.16,13690.8 c 0,0 -703.13,162.7 -595.05,599 108.07,436.3 90.11,751.2 543.6,665.7 453.51,-85.4 499.16,-273.4 498.5,-427.9 -0.66,-154.4 -261.37,-867.9 -447.05,-836.8"
         style="fill:#ffb27d;fill-opacity:1;fill-rule:nonzero;stroke:none"
         id="path58" />
      <path
         d="m 8640.75,14775.4 c -75.58,158.1 -164.55,149.7 -220.2,121.6 -330.38,305.7 -831.13,152.1 -831.13,152.1 -124.73,-301.3 -218.36,-520.6 -218.36,-520.6 0,0 108.01,-110.6 421.09,-108.1 95.62,0.7 191.78,44.6 279.27,105.1 -168.75,-169.9 -366.62,-273.4 -366.62,-273.4 391.89,75 654.69,528.7 681.61,576.9 33.19,-49.1 96.7,-153.4 102.05,-241.5 7.26,-119.8 -33.94,-352.4 34.64,-361.2 0,0 231.01,311.9 117.65,549.1"
         style="fill:#2c3a64;fill-opacity:1;fill-rule:nonzero;stroke:none"
         id="path60" />
      <path
         d="m 8433.31,13028.2 c 0,0 169.3,-295.3 194.62,-371.3 0,0 -219.53,8.4 -308.18,-160.5 0,0 -21.26,492 113.56,531.8"
         style="fill:#739af0;fill-opacity:1;fill-rule:nonzero;stroke:none"
         id="path62" />
      <path
         d="m 7268.93,10681.6 c -428.77,4.5 -791.84,449.7 -1013.72,805.6 48.49,78.5 79.27,167.2 89.04,259.9 38.56,365.3 23.88,707.7 27.14,915.9 v 0.1 c 38.38,28.4 75.49,54.6 110.05,79.6 52.84,38.6 99.55,74.6 133.94,111.1 351.1,-593.4 1234.89,-2178.4 653.55,-2172.2"
         style="fill:#4a75cb;fill-opacity:1;fill-rule:nonzero;stroke:none"
         id="path64" />
      <path
         d="M 6434.62,3095.2 H 5318.06 c 0,0 -26.76,170.2 31.55,299.3 55.9,123.8 143.43,180.1 122.47,330 70.95,-73 186.58,-154.8 348,-133.1 19.78,-32.1 127.66,-203.7 193.74,-251.1 72.96,-52.5 398.33,-33.8 420.8,-245.1"
         style="fill:#233862;fill-opacity:1;fill-rule:nonzero;stroke:none"
         id="path66" />
      <path
         d="M 8832,3095.2 H 7715.45 c 0,0 -41.73,178.1 31.57,299.3 64.88,107.2 40,168.3 -8.06,257 50.59,-20.7 116.03,-39.6 188.07,-35.5 55.63,3.2 114.46,28.5 166.05,58.5 48.05,-54.8 253.83,-288 318.13,-334.2 72.96,-52.5 398.32,-33.8 420.79,-245.1"
         style="fill:#233862;fill-opacity:1;fill-rule:nonzero;stroke:none"
         id="path68" />
      <path
         d="m 9870.12,11293.1 -1086.43,-1413.3 16.11,-19.7 1101.86,1415.9 -31.54,17.1"
         style="fill:#233862;fill-opacity:1;fill-rule:nonzero;stroke:none"
         id="path70" />
      <path
         d="M 9899.55,11273.3 H 11002.1 L 9847.95,9860.1 H 8799.8 l 1099.75,1413.2"
         style="fill:#2b478b;fill-opacity:1;fill-rule:nonzero;stroke:none"
         id="path72" />
      <path
         d="m 9672.77,10415.7 c -3.06,56.2 -77.23,53.7 -133.56,53.9 -92.4,0.5 -238.16,6.8 -322.47,39.1 0,0 269.25,3.9 212.03,89 -10.43,15.4 -144.26,3.7 -293.69,3.7 -61.27,0 -212.73,-84 -204.91,-87.9 -108.27,14.3 -206.71,35.3 -238.53,42.2 -73.83,40.3 -162.74,88.9 -256.68,142.6 -226.49,127.5 -486.53,283.5 -664.36,412.7 -102.34,73.8 -179.52,139.3 -206.35,186.2 -41.95,72.2 -88.93,186.3 -140.93,327.2 -26.84,73.8 -55.37,154.3 -83.89,239.9 -50.33,140.9 -100.66,293.6 -152.67,446.2 -93.94,278.5 -194.61,558.7 -290.23,775.1 -62.06,135.9 -122.47,248.3 -179.51,317.1 -45.3,55.4 -88.92,83.9 -130.86,77.2 -6.71,-1.7 -11.75,-3.4 -16.78,-5 0,0 -241.58,-67.1 -244.94,-553.7 -1.68,-26.8 0,-55.3 1.68,-85.5 3.36,-85.6 20.13,-189.6 45.3,-303.7 40.26,-191.2 107.37,-412.7 191.25,-637.5 23.49,-60.4 46.97,-122.5 72.14,-184.6 181.19,-449.6 414.39,-869 610.67,-1011.6 8.4,-6.7 15.1,-11.7 23.48,-16.8 82.21,-52 203.01,-104 342.25,-152.6 197.96,-67.2 432.84,-127.5 642.55,-177.9 h 1.68 c 122.47,-26.8 234.88,-52 328.82,-70.4 0,0 15.42,-3.9 42.87,-9.3 3.93,-0.8 8.09,-1.6 12.49,-2.5 88.93,-21.8 271.78,-68.8 444.59,-135.9 241.6,-95.6 419.31,23.3 499.94,107.4 51.12,53.3 91.42,124.1 88.62,175.4"
         style="fill:#ffb27d;fill-opacity:1;fill-rule:nonzero;stroke:none"
         id="path74" />
      <path
         d="m 6895.94,13084.9 c -322.98,89.1 -572.12,-163.1 -572.12,-163.1 4.06,485.7 245.85,552.2 245.85,552.2 97.27,40.3 302.95,-68.4 326.27,-389.1"
         style="fill:#739af0;fill-opacity:1;fill-rule:nonzero;stroke:none"
         id="path76" />
      <path
         d="m 8215.82,15677 c -160.01,36.6 -295.43,33.9 -409.81,5.8 -11.32,-2.8 -22.54,-5.8 -33.51,-9.1 l -0.16,-0.1 C 7335.53,15543 7225.55,15037 7225.55,15037 c 0,0 -18.28,-132.7 -13.65,-190.2 4.64,-57.4 420.74,-205.8 483.79,-131.9 63.05,73.8 185.02,121.9 185.02,121.9 0,0 425.92,-181.3 454.62,-193.4 96.4,-40.6 408.73,-83.5 408.73,-83.5 10.25,27.6 282.56,931.5 -528.24,1117.1"
         style="fill:#ffa412;fill-opacity:1;fill-rule:nonzero;stroke:none"
         id="path78" />
      <path
         d="m 9032.38,14523.2 c -43.22,37.2 -120.56,93.5 -256.67,169.2 0,0 -165.61,-37.1 -434.61,7.3 -38.99,192.6 -180.67,680.9 -535.09,983.1 -1.06,0.9 -2.01,1.8 -3.07,2.7 -14.08,-6.4 -20.78,-7.6 -30.44,-11.8 l -0.16,-0.1 c -2.89,-1.2 -6.1,-2.7 -9.81,-4.8 299.43,-224.6 423.78,-752.7 460.6,-945.5 -103.5,24.2 -218.42,60.3 -342.42,113.5 0,0 317.11,-337.7 1129.26,-374.1 31.74,-1.4 46.49,39.8 22.41,60.5"
         style="fill:#e27f2b;fill-opacity:1;fill-rule:nonzero;stroke:none"
         id="path80" />
      <path
         d="m 9870.12,11293.1 h 1108.78 l 23.2,-19.8 H 9899.55 l -29.43,19.8"
         style="fill:#233862;fill-opacity:1;fill-rule:nonzero;stroke:none"
         id="path82" />
      <path
         d="m 18227.6,4629.4 h -1996.5 c -39.4,0 -71.3,33.6 -71.3,75 0,41.4 31.9,75 71.3,75 h 1996.5 c 39.4,0 71.4,-33.6 71.4,-75 0,-41.4 -32,-75 -71.4,-75"
         style="fill:#2b478b;fill-opacity:1;fill-rule:nonzero;stroke:none"
         id="path84" />
      <path
         d="m 18247.5,6939.4 h -2036.2 c -40.2,0 -72.8,33.6 -72.8,75 0,41.4 32.6,75 72.8,75 h 2036.2 c 40.1,0 72.7,-33.6 72.7,-75 0,-41.4 -32.6,-75 -72.7,-75"
         style="fill:#2b478b;fill-opacity:1;fill-rule:nonzero;stroke:none"
         id="path86" />
      <path
         d="m 19508.7,10380.9 c 120.8,-27.9 666.6,-34.5 1050,51.6 79.9,17.9 152.9,39.8 213.3,66.5 72.2,31.8 126.6,70.3 154.4,116.6 43.3,72.2 122.6,319.3 215.8,643.3 256.7,892.5 617.9,2367.2 617.9,2367.2 0,0 -725.3,-148 -878.8,-274.4 -153.6,-126.4 -289.1,-2131 -433.4,-2185.2 -21.3,-8 -58,-24.8 -105,-47.9 -2.3,-1.1 -4.6,-2.3 -6.9,-3.4 -28.1,-13.8 -59.6,-29.8 -93.8,-47.4 -299.4,-153.9 -795,-431.2 -846.4,-492.8 -67.7,-81.3 -63.2,-153.5 112.9,-194.1"
         style="fill:#739af0;fill-opacity:1;fill-rule:nonzero;stroke:none"
         id="path88" />
      <path
         d="m 20900.4,12484.8 c 0,34.2 3.4,68.3 9.6,102.6 93.3,513.2 835.5,1038.7 850.1,1038.7 l 0.1,-10.7 c 0,-78.4 123.7,-223.2 314.1,-235.6 226,-14.8 504.8,114.1 504.8,244.2 1.4,0 127,-17 169.5,-21.7 181.1,-20.6 542.5,-118.4 697.3,-235.4 147.2,-111.2 -60.8,-812.5 -189.6,-1309 -54.6,-210.1 -94.8,-383.5 -88.2,-460.3 3.2,-37.5 37,-547.2 67,-1008.2 25,-380.4 47.4,-727.5 48.1,-749.4 1.6,-43.2 -213.2,-194.5 -573.9,-308.8 -87.1,-27.6 -182.8,-53.1 -286.1,-74.2 -185.1,-38.1 -394.5,-62.6 -622.3,-61.8 -74.5,0.3 -145.1,4.1 -211.7,10.7 -515.3,50.6 -691.8,637.7 -688.8,3078.9"
         style="fill:#739af0;fill-opacity:1;fill-rule:nonzero;stroke:none"
         id="path90" />
      <path
         d="m 22578.9,13630.1 c 4.4,199.3 1.1,437.3 -25.8,638.4 l -795.6,-130.1 c 0,0 -0.9,-242.8 2.6,-512.3 -0.5,0 -21.6,-249.9 286.2,-286.4 307.8,-36.6 540.9,97.5 532.6,290.4"
         style="fill:#d9935c;fill-opacity:1;fill-rule:nonzero;stroke:none"
         id="path92" />
      <path
         d="m 21913.3,3095.2 c 100.1,61.5 41.3,517.8 41.3,517.8 0,0 -468.6,372 -531.7,85.6 -63.2,-286.4 -442.3,-416.2 -658.2,-452.1 -149.1,-24.8 -204.1,-101.8 -218.2,-150.8 l 1366.8,-0.5"
         style="fill:#233862;fill-opacity:1;fill-rule:nonzero;stroke:none"
         id="path94" />
      <path
         d="m 22642.1,10940.7 c 0,-763 369.8,-557.4 593,-351.3 -30,461 -51.2,2094.1 -51.2,2094.1 0,0 -541.8,-650.1 -541.8,-1742.8"
         style="fill:#4a75cb;fill-opacity:1;fill-rule:nonzero;stroke:none"
         id="path96" />
      <path
         d="m 20242.2,11067.8 c 14.8,-107 183.9,-418.6 316.5,-635.3 79.9,17.9 152.9,39.8 213.3,66.5 72.2,31.8 126.6,70.3 154.4,116.6 43.3,72.2 122.6,319.3 215.8,643.3 -69,398.7 -134.5,792.5 -134.5,792.5 l -20.3,264.1 c 0,-20.3 -309.3,-1180.7 -449.3,-1207.8 -84.4,-16.4 -144.3,3.5 -195.2,10.9 -2.3,-1.1 -4.6,-2.3 -6.9,-3.4 -28.1,-13.8 -59.6,-29.8 -93.8,-47.4"
         style="fill:#4a75cb;fill-opacity:1;fill-rule:nonzero;stroke:none"
         id="path98" />
      <path
         d="m 23349.1,3095.2 c 100,61.5 41.3,517.8 41.3,517.8 0,0 -468.6,372 -531.8,85.6 -63.1,-286.4 -442.2,-416.2 -658.2,-452.1 -149,-24.8 -203.2,-101.8 -217.3,-150.8 l 1366,-0.5"
         style="fill:#233862;fill-opacity:1;fill-rule:nonzero;stroke:none"
         id="path100" />
      <path
         d="m 22654.7,14497.9 c 0,0 531.1,837.4 -488.7,892.9 0,0 -382.5,-45.1 -469.1,41.5 0,0 -296.7,-450.9 -19.7,-934.4 277.1,-483.4 977.5,0 977.5,0"
         style="fill:#233862;fill-opacity:1;fill-rule:nonzero;stroke:none"
         id="path102" />
      <path
         d="m 21781.1,14060.9 c 77.3,-60.8 303.9,-121.2 369.5,-128.3 0,0 336.1,75 397.2,111.8 94.6,57.4 88.5,173.5 93.4,334.9 5.8,191.1 25.1,341.1 3.7,451.3 -25.3,131.7 -108.9,206.7 -342.8,227.1 -429.3,37.2 -608.2,-70.3 -615.7,-214.2 -1.9,-38.7 -3.7,-75.5 -5,-110.4 -17.1,-449 18.3,-608.2 99.7,-672.2"
         style="fill:#d9935c;fill-opacity:1;fill-rule:nonzero;stroke:none"
         id="path104" />
      <path
         d="m 21677.6,14585.9 c 4.1,-260.1 74.3,-414 125.1,-433.5 58.5,-22.3 127.3,-40.9 199.1,-53.2 24.2,-2.8 47.4,-2 47.1,11.7 -0.8,41 -55.6,91.6 -14.8,127.9 42.7,38.1 272,51 290.5,-32.2 9,-40.5 -65,-112.1 -14.3,-113.7 15.4,2.6 30.5,5.5 44.9,9.3 83.5,21.8 149,61.3 176.6,78 94.6,57.3 88.4,145.3 109.4,305.4 13.5,103.6 13.5,47.4 0,-106.3 -14.2,-160.9 13.5,-264.1 -93.4,-334.9 -59.5,-39.3 -402.2,-193.3 -402.2,-193.3 5,81.5 -287.2,149 -364.5,209.8 -71.8,56.4 -107.8,186.9 -103.5,525"
         style="fill:#233862;fill-opacity:1;fill-rule:nonzero;stroke:none"
         id="path106" />
      <path
         d="m 23283.2,9840.1 c 1.6,-43.2 -213.2,-194.5 -573.9,-308.9 -29.1,-9.2 -59.2,-18.1 -90.1,-26.7 l -0.7,-0.9 c -33.7,-394.8 -124.8,-952.5 -206.9,-1490.7 v -0.2 c -21.3,-139.5 -41.9,-277.7 -60.9,-411.3 -50.1,-353.8 -87.6,-676.2 -91.7,-908.2 v -2.5 c -1.7,-106.4 88.1,-372 94.8,-433.4 4.2,-37.5 7.6,-77.2 10.1,-118.8 9.7,-166.2 5.8,-362.6 -7.6,-572.3 -58.9,-915 -300.7,-2085.9 -387,-2135.7 -171.5,-99.2 -483.5,0.1 -642.2,23.3 -65.6,9.7 -118.2,65.7 -114.8,131.9 77.5,1518.7 -145.1,3633.7 -311.4,4933.9 -4.4,33.8 -8.7,67 -12.9,99.7 -19.9,153.3 -33,296.5 -41.3,425.6 -7.6,113.2 -11.2,216 -12.9,305.1 -0.4,27.8 -0.6,54.3 -0.8,79.4 -0.4,81.4 64.4,614.3 67.3,3055.5 0.1,56.4 46.3,102.5 102.7,102.5 h 1492.8 c 144.3,0 260.4,-118.1 258.6,-262.3 -2.3,-186.2 4.4,-446.3 44.8,-694.4 55.1,-339 173.1,-655.6 416.6,-731.8 l 0.6,-0.5 c 1.1,-2.5 7.8,-17.3 18.5,-42 l 0.1,-0.4 c 2.3,-61.3 4.8,-123.7 7.7,-187.2 0.5,-12.8 1.1,-25.6 1.7,-38.5 0.3,-7.6 0.7,-15 1.1,-22.6 0.6,-12.9 1.2,-25.9 1.9,-38.9 1,-21.4 2,-42.9 3.3,-64.8 0.9,-17 1.8,-34.1 2.8,-51.3 1.8,-33 3.8,-66.5 6,-100.2 0.5,-10.9 1.2,-21.6 2,-32.5 2.8,-43.6 5.8,-87.9 9.2,-132.5 1,-13.7 2,-27.4 3.1,-41.2 0.4,-6.6 1,-13.2 1.5,-19.9 1.4,-17.5 2.7,-34.9 4.2,-52.5 1.5,-18.6 3.1,-37.3 4.7,-56.1 6,-68.6 -2.8,-129.6 -1,-177.7"
         style="fill:#2b478b;fill-opacity:1;fill-rule:nonzero;stroke:none"
         id="path108" />
      <path
         d="m 22356.3,5566.2 c -58.9,-915 -300.7,-2085.9 -387,-2135.7 -171.5,-99.2 -483.5,0.1 -642.2,23.3 -65.6,9.7 -118.2,65.7 -114.8,131.9 77.5,1518.7 -145.1,3633.7 -311.4,4933.9 -4.4,33.8 -8.7,67 -12.9,99.7 -19.9,153.3 -33,296.5 -41.3,425.6 79.1,515.5 525.5,543.1 930.4,-523.3 -50.1,-353.8 592.6,-2745.7 579.2,-2955.4"
         style="fill:#233862;fill-opacity:1;fill-rule:nonzero;stroke:none"
         id="path110" />
      <path
         d="m 23299.9,6736.2 c 12.3,-105.8 136.1,-357.3 150.9,-417.2 204.7,-823.1 91.7,-2774.9 -9.8,-2852.9 -157,-120.8 -479.5,-63.4 -639.7,-61.2 -66.4,0.9 -125.8,49.6 -131.2,115.6 -125.8,1555.1 -647.3,3690.9 -982.7,4947.4 -168.8,632.9 -192.8,1098.2 -192.8,1098.2 0,0 1567.4,960.3 1736.9,435.7 150.1,-464.2 -26.1,-2453.3 68.4,-3265.6"
         style="fill:#2b478b;fill-opacity:1;fill-rule:nonzero;stroke:none"
         id="path112" />
      <path
         d="m 21703.5,15624.9 c 10.8,12.2 22.3,24 34.4,35.4 51.1,48.6 112.7,90.5 186.7,121.4 273.3,114 500,8.7 641.6,-99 14,-10.5 27.1,-21.2 39.3,-31.7 77,-65.4 120,-123.8 120,-123.8 0,0 132.7,-181.1 128.3,-562.8 l -1367.2,-14.6 c 0,0 -20,412.3 216.9,675.1"
         style="fill:#ffa412;fill-opacity:1;fill-rule:nonzero;stroke:none"
         id="path114" />
      <path
         d="m 22470.1,14960.5 -75.1,-0.9 c -1.5,21.8 2.2,518 187.2,710.6 14,-10.5 11.1,-8.7 23.3,-19.2 -175.8,-169.6 -135.7,-685.4 -135.4,-690.5"
         style="fill:#e27f2b;fill-opacity:1;fill-rule:nonzero;stroke:none"
         id="path116" />
      <path
         d="m 21876,14954 c -15.6,303.8 -131.9,623 -163.3,679.7 10.8,12.5 13.1,14.8 25.2,26.6 21.8,-37.5 200.1,-368.1 218.9,-705.5 l 897,9.6 c 0,0 -454.5,-101.9 -728.8,-105.3 -274.2,-3.4 -638.4,90.7 -638.4,90.7 l 389.4,4.2"
         style="fill:#e27f2b;fill-opacity:1;fill-rule:nonzero;stroke:none"
         id="path118" />
      <path
         d="m 22802.3,13595 c 0,0 -462,-538.1 -489,-1007.7 l 235.3,-12.4 c 0,0 59.3,522.9 406.9,988 0,0 -54.4,13.1 -72.5,16.7 -24.2,4.8 -80.7,15.4 -80.7,15.4"
         style="fill:#2b478b;fill-opacity:1;fill-rule:nonzero;stroke:none"
         id="path120" />
      <path
         d="m 21650.6,13602.4 c -330.9,-500.7 -366.4,-1025.2 -366.4,-1025.2 l -237.5,4.1 c 19.5,369.1 251.4,775.1 379.4,967.4 0,0 164.3,41.5 224.5,53.7"
         style="fill:#2b478b;fill-opacity:1;fill-rule:nonzero;stroke:none"
         id="path122" />
      <path
         d="m 23172,10706.3 c -11.6,-551.1 57,-1648.3 57,-1648.3 h 325.1 c 153.5,772 207.7,1268.7 207.7,1539.6 0,53.4 -0.3,103.1 -0.7,149 -2,231.3 -8.3,365.7 -8.3,365.7 61,1401.8 -219,2151.4 -306.9,2254.6 -88,103.2 -490.3,196 -490.3,196 0,0 -132.9,-387.3 -187.1,-698.8 -54.2,-311.5 426.1,-1620.5 406.4,-2067.9 -1.3,-27.9 -2.2,-58 -2.9,-89.9"
         style="fill:#739af0;fill-opacity:1;fill-rule:nonzero;stroke:none"
         id="path124" />
      <path
         d="m 23229,9058 c 0,0 -68.6,1097.2 -57,1648.3 260,83.8 469.6,65.4 589.1,40.3 0.4,-45.9 0.7,-95.6 0.7,-149 0,-270.9 -54.2,-767.6 -207.7,-1539.6 67.7,-284.5 63.2,-591.5 -54.2,-645.7 -117.3,-54.2 -505.6,149 -501.1,239.3 4.5,90.3 230.2,406.4 230.2,406.4"
         style="fill:#d9935c;fill-opacity:1;fill-rule:nonzero;stroke:none"
         id="path126" />
      <path
         d="m 18781.2,10326.7 c 31.7,116.2 55.2,180.6 135.2,237 116.3,82 254.3,59.8 357.1,41.8 78.6,-13.8 161,12.6 195.5,25.8 182.1,121.4 639.3,371.7 867,483.9 155.3,-90.1 346.2,-268.3 436,-616.2 -350.4,-154.6 -1117.3,-151.8 -1263.3,-118.1 0,0 -135.2,-98.2 -238.1,-107.3 -38.9,-3.4 -88,7.9 -133.9,23.3 -72.3,24.2 -149.8,0.1 -201.8,-64.1 -49.9,-61.8 -103.5,-61.7 -130.5,-61.7 -41.9,0 -43.1,82.4 -23.2,155.6"
         style="fill:#d9935c;fill-opacity:1;fill-rule:nonzero;stroke:none"
         id="path128" />
      <path
         d="m 18354.4,3376.1 h -2421.7 c -41.4,0 -134.2,33.6 -134.2,75 0,41.4 311.5,75 352.9,75 h 2053 v 6349.8 c 0,259.3 210.9,470.2 470.1,470.2 h 524.9 c 41.4,0 75,-33.6 75,-75 0,-41.4 -33.6,-75 -75,-75 h -524.9 c -176.5,0 -320.1,-143.6 -320.1,-320.2 V 3376.1"
         style="fill:#2b478b;fill-opacity:1;fill-rule:nonzero;stroke:none"
         id="path130" />
      <path
         d="m 16254.4,3376.1 h -1756.7 c -41.4,0 -75,33.6 -75,75 0,41.4 33.6,75 75,75 h 1606.7 v 6349.8 c 0,259.3 210.9,470.2 470.1,470.2 h 524.9 c 41.4,0 75,-33.6 75,-75 0,-41.4 -33.6,-75 -75,-75 h -524.9 c -176.5,0 -320.1,-143.6 -320.1,-320.2 V 3376.1"
         style="fill:#2b478b;fill-opacity:1;fill-rule:nonzero;stroke:none"
         id="path132" />
      <path
         d="m 18231.1,9239.4 h -2003.5 c -39.5,0 -71.6,33.6 -71.6,75 0,41.4 32.1,75 71.6,75 h 2003.5 c 39.6,0 71.6,-33.6 71.6,-75 0,-41.4 -32,-75 -71.6,-75"
         style="fill:#2b478b;fill-opacity:1;fill-rule:nonzero;stroke:none"
         id="path134" />
      <path
         d="m 19322.7,10146.1 h -648.2 c -69,0 -125,56 -125,125 0,69 56,125 125,125 h 648.2 c 69,0 125,-56 125,-125 0,-69 -56,-125 -125,-125"
         style="fill:#963333;fill-opacity:1;fill-rule:nonzero;stroke:none"
         id="path136" />
      <path
         d="m 18674.5,10346.1 c -236,0 -431.8,-174.8 -465.1,-401.7 h 152.4 c 31.5,143.7 159.7,251.7 312.7,251.7 41.4,0 75,33.6 75,75 0,41.4 -33.6,75 -75,75"
         style="fill:#2b478b;fill-opacity:1;fill-rule:nonzero;stroke:none"
         id="path138" />
      <path
         d="m 17222.7,10146.1 h -648.2 c -69,0 -125,56 -125,125 0,69 56,125 125,125 h 648.2 c 69,0 125,-56 125,-125 0,-69 -56,-125 -125,-125"
         style="fill:#963333;fill-opacity:1;fill-rule:nonzero;stroke:none"
         id="path140" />
      <path
         d="m 16574.5,10346.1 c -236,0 -431.8,-174.8 -465.1,-401.7 h 152.4 c 31.5,143.7 159.7,251.7 312.7,251.7 41.4,0 75,33.6 75,75 0,41.4 -33.6,75 -75,75"
         style="fill:#2b478b;fill-opacity:1;fill-rule:nonzero;stroke:none"
         id="path142" />
      <path
         d="m 15780.2,5743.8 2496.1,44 6.9,-2261.7 H 15787 l -6.8,2217.7"
         style="fill:#d3671e;fill-opacity:1;fill-rule:nonzero;stroke:none"
         id="path144" />
      <path
         d="m 15031.2,5740 1998.4,7.7 5.5,-2222.9 -1998.4,1.3 -5.5,2213.9"
         style="fill:#f1a34f;fill-opacity:1;fill-rule:nonzero;stroke:none"
         id="path146" />
      <path
         d="m 15033,5039.4 v 0 l -1.8,700.6 1.8,-700.6"
         style="fill:#edb78b;fill-opacity:1;fill-rule:nonzero;stroke:none"
         id="path148" />
      <path
         d="m 17035.1,3524.8 v 0 l -2002.1,1514.6 -1.8,700.6 346.6,1.3 v -0.3 l 1651.8,6.4 5.5,-2222.6"
         style="fill:#e78b37;fill-opacity:1;fill-rule:nonzero;stroke:none"
         id="path150" />
      <path
         d="m 18522.7,4699.4 h -300 c -356.2,0 -645,-353.7 -645,-790 0,-436.3 288.8,-790 645,-790 h 300 c 356.2,0 645,353.7 645,790 0,436.3 -288.8,790 -645,790"
         style="fill:#233862;fill-opacity:1;fill-rule:nonzero;stroke:none"
         id="path152" />
      <path
         d="m 19167.7,3909.4 c 0,-436.3 -288.8,-790 -645,-790 -356.2,0 -645,353.7 -645,790 0,436.3 288.8,790 645,790 356.2,0 645,-353.7 645,-790"
         style="fill:#2b478b;fill-opacity:1;fill-rule:nonzero;stroke:none"
         id="path154" />
      <path
         d="m 18930.9,3909.4 c 0,-276.1 -182.7,-500 -408.2,-500 -225.5,0 -408.2,223.9 -408.2,500 0,276.2 182.7,500 408.2,500 225.5,0 408.2,-223.8 408.2,-500"
         style="fill:#4a75cb;fill-opacity:1;fill-rule:nonzero;stroke:none"
         id="path156" />
      <path
         d="m 16228.6,8279 2872.4,8.8 -7.9,-2533.6 -2856.7,-8.8 -7.8,2533.6"
         style="fill:#d3671e;fill-opacity:1;fill-rule:nonzero;stroke:none"
         id="path158" />
      <path
         d="m 15371.5,8274.6 2287,8.8 6.3,-2533.6 -2287,-8.8 -6.3,2533.6"
         style="fill:#f1a34f;fill-opacity:1;fill-rule:nonzero;stroke:none"
         id="path160" />
      <path
         d="m 17664.8,5749.8 -2291.3,1714.8 -2,810 2287,8.8 6.3,-2533.6"
         style="fill:#e78b37;fill-opacity:1;fill-rule:nonzero;stroke:none"
         id="path162" />
      <path
         d="m 19508.7,10380.9 c 0,0 -243.3,-165.6 -307.7,-124.8 -64.3,40.8 45,133.3 -58.3,166.6 -103.3,33.4 366,-41.8 366,-41.8"
         style="fill:#d9935c;fill-opacity:1;fill-rule:nonzero;stroke:none"
         id="path164" />
      <path
         d="M 28119.2,3060.3 H 1880.79 c -16.39,0 -29.79,13.4 -29.79,29.8 v 10.2 c 0,16.4 13.4,29.8 29.79,29.8 H 28119.2 c 16.4,0 29.8,-13.4 29.8,-29.8 v -10.2 c 0,-16.4 -13.4,-29.8 -29.8,-29.8"
         style="fill:#2e3552;fill-opacity:1;fill-rule:nonzero;stroke:none"
         id="path166" />
    </g>
  </g>
</svg>
